<mxfile host="Electron" agent="Mozilla/5.0 (Windows NT 10.0; Win64; x64) AppleWebKit/537.36 (KHTML, like Gecko) draw.io/27.0.5 Chrome/134.0.6998.205 Electron/35.3.0 Safari/537.36" version="27.0.5">
  <diagram name="Page-1" id="OGQs3JS_yxO8IoXKhp1g">
    <mxGraphModel dx="571" dy="731" grid="1" gridSize="10" guides="1" tooltips="1" connect="1" arrows="1" fold="1" page="1" pageScale="1" pageWidth="1169" pageHeight="827" math="0" shadow="0">
      <root>
        <mxCell id="0" />
        <mxCell id="1" parent="0" />
        <mxCell id="hhG7JWanRTFEOqV9OZgM-2" value="MVVM Units" style="text;html=1;align=center;verticalAlign=middle;whiteSpace=wrap;rounded=0;fontSize=18;fontStyle=1" parent="1" vertex="1">
          <mxGeometry x="510" width="150" height="50" as="geometry" />
        </mxCell>
        <mxCell id="lM1QA-Wftmnt-T5FOFc9-38" value="Diagram" parent="0" />
        <mxCell id="lM1QA-Wftmnt-T5FOFc9-1" value="UI layer" style="rounded=1;whiteSpace=wrap;html=1;fillColor=light-dark(#e0f7f6, #1f2f1e);dashed=1;dashPattern=12 12;verticalAlign=top;labelPosition=center;verticalLabelPosition=middle;align=center;spacing=5;fontSize=12;strokeColor=none;arcSize=8;fontStyle=1;spacingTop=0;" vertex="1" parent="lM1QA-Wftmnt-T5FOFc9-38">
          <mxGeometry x="40" y="100" width="360" height="340" as="geometry" />
        </mxCell>
        <mxCell id="lM1QA-Wftmnt-T5FOFc9-2" value="Data layer" style="rounded=1;whiteSpace=wrap;html=1;fillColor=light-dark(#dceefa, #1f2f1e);dashed=1;dashPattern=12 12;verticalAlign=top;labelPosition=center;verticalLabelPosition=middle;align=center;spacing=5;fontSize=12;strokeColor=none;arcSize=8;fontStyle=1;spacingTop=0;" vertex="1" parent="lM1QA-Wftmnt-T5FOFc9-38">
          <mxGeometry x="440" y="100" width="430" height="340" as="geometry" />
        </mxCell>
        <mxCell id="lM1QA-Wftmnt-T5FOFc9-3" value="View&lt;div&gt;&lt;ul style=&quot;padding-left: 15px; margin-top: 0px;&quot;&gt;&lt;li&gt;&lt;span style=&quot;background-color: transparent; color: light-dark(rgb(0, 0, 0), rgb(255, 255, 255));&quot;&gt;&lt;font style=&quot;font-size: 11px;&quot;&gt;displays data&lt;/font&gt;&lt;/span&gt;&lt;/li&gt;&lt;li&gt;&lt;span style=&quot;background-color: transparent; color: light-dark(rgb(0, 0, 0), rgb(255, 255, 255));&quot;&gt;&lt;font style=&quot;font-size: 11px;&quot;&gt;listens for events&lt;/font&gt;&lt;/span&gt;&lt;/li&gt;&lt;/ul&gt;&lt;/div&gt;" style="rounded=1;whiteSpace=wrap;html=1;align=left;verticalAlign=top;spacingLeft=5;" vertex="1" parent="lM1QA-Wftmnt-T5FOFc9-38">
          <mxGeometry x="60" y="250" width="130" height="60" as="geometry" />
        </mxCell>
        <mxCell id="lM1QA-Wftmnt-T5FOFc9-4" value="ViewModel&lt;div&gt;&lt;ul style=&quot;padding-left: 15px; margin-top: 0px;&quot;&gt;&lt;li&gt;&lt;font style=&quot;font-size: 11px;&quot;&gt;handles view logic&lt;/font&gt;&lt;/li&gt;&lt;/ul&gt;&lt;/div&gt;" style="rounded=1;whiteSpace=wrap;html=1;align=left;verticalAlign=top;spacingLeft=5;" vertex="1" parent="lM1QA-Wftmnt-T5FOFc9-38">
          <mxGeometry x="230" y="250" width="130" height="60" as="geometry" />
        </mxCell>
        <mxCell id="lM1QA-Wftmnt-T5FOFc9-5" value="Repository A&lt;div&gt;&lt;ul style=&quot;padding-left: 15px; margin-top: 0px;&quot;&gt;&lt;li&gt;&lt;font style=&quot;font-size: 11px;&quot;&gt;caching and retry logic&lt;/font&gt;&lt;/li&gt;&lt;li&gt;&lt;span style=&quot;font-size: 11px;&quot;&gt;error handling&lt;/span&gt;&lt;/li&gt;&lt;li&gt;&lt;span style=&quot;font-size: 11px;&quot;&gt;handling raw data&lt;/span&gt;&lt;/li&gt;&lt;/ul&gt;&lt;/div&gt;" style="rounded=1;whiteSpace=wrap;html=1;align=left;verticalAlign=top;spacingLeft=5;" vertex="1" parent="lM1QA-Wftmnt-T5FOFc9-38">
          <mxGeometry x="455" y="140" width="150" height="80" as="geometry" />
        </mxCell>
        <mxCell id="lM1QA-Wftmnt-T5FOFc9-6" value="Repository B&lt;div&gt;&lt;ul style=&quot;padding-left: 15px; margin-top: 0px;&quot;&gt;&lt;li&gt;&lt;font style=&quot;font-size: 11px;&quot;&gt;caching and retry logic&lt;/font&gt;&lt;/li&gt;&lt;li&gt;&lt;span style=&quot;font-size: 11px;&quot;&gt;error handling&lt;/span&gt;&lt;/li&gt;&lt;li&gt;&lt;span style=&quot;font-size: 11px;&quot;&gt;handling raw data&lt;/span&gt;&lt;/li&gt;&lt;/ul&gt;&lt;/div&gt;" style="rounded=1;whiteSpace=wrap;html=1;align=left;verticalAlign=top;spacingLeft=5;" vertex="1" parent="lM1QA-Wftmnt-T5FOFc9-38">
          <mxGeometry x="455" y="240" width="150" height="80" as="geometry" />
        </mxCell>
        <mxCell id="lM1QA-Wftmnt-T5FOFc9-7" value="Repository C&lt;div&gt;&lt;ul style=&quot;padding-left: 15px; margin-top: 0px;&quot;&gt;&lt;li&gt;&lt;font style=&quot;font-size: 11px;&quot;&gt;caching and retry logic&lt;/font&gt;&lt;/li&gt;&lt;li&gt;&lt;span style=&quot;font-size: 11px;&quot;&gt;error handling&lt;/span&gt;&lt;/li&gt;&lt;li&gt;&lt;span style=&quot;font-size: 11px;&quot;&gt;handling raw data&lt;/span&gt;&lt;/li&gt;&lt;/ul&gt;&lt;/div&gt;" style="rounded=1;whiteSpace=wrap;html=1;align=left;verticalAlign=top;spacingLeft=5;" vertex="1" parent="lM1QA-Wftmnt-T5FOFc9-38">
          <mxGeometry x="455" y="340" width="150" height="80" as="geometry" />
        </mxCell>
        <mxCell id="lM1QA-Wftmnt-T5FOFc9-8" value="Service 1&lt;div&gt;&lt;ul style=&quot;padding-left: 15px; margin-top: 0px;&quot;&gt;&lt;li&gt;&lt;span style=&quot;font-size: 11px;&quot;&gt;wraps API calls&lt;/span&gt;&lt;/li&gt;&lt;/ul&gt;&lt;/div&gt;" style="rounded=1;whiteSpace=wrap;html=1;align=left;verticalAlign=top;spacingLeft=5;" vertex="1" parent="lM1QA-Wftmnt-T5FOFc9-38">
          <mxGeometry x="705" y="140" width="150" height="80" as="geometry" />
        </mxCell>
        <mxCell id="lM1QA-Wftmnt-T5FOFc9-9" value="Service 2&lt;div&gt;&lt;ul style=&quot;padding-left: 15px; margin-top: 0px;&quot;&gt;&lt;li&gt;&lt;span style=&quot;font-size: 11px;&quot;&gt;wraps API calls&lt;/span&gt;&lt;/li&gt;&lt;/ul&gt;&lt;/div&gt;" style="rounded=1;whiteSpace=wrap;html=1;align=left;verticalAlign=top;spacingLeft=5;" vertex="1" parent="lM1QA-Wftmnt-T5FOFc9-38">
          <mxGeometry x="705" y="240" width="150" height="80" as="geometry" />
        </mxCell>
        <mxCell id="lM1QA-Wftmnt-T5FOFc9-10" value="Service 3&lt;div&gt;&lt;ul style=&quot;padding-left: 15px; margin-top: 0px;&quot;&gt;&lt;li&gt;&lt;span style=&quot;font-size: 11px;&quot;&gt;wraps API calls&lt;/span&gt;&lt;/li&gt;&lt;/ul&gt;&lt;/div&gt;" style="rounded=1;whiteSpace=wrap;html=1;align=left;verticalAlign=top;spacingLeft=5;" vertex="1" parent="lM1QA-Wftmnt-T5FOFc9-38">
          <mxGeometry x="705" y="340" width="150" height="80" as="geometry" />
        </mxCell>
        <mxCell id="lM1QA-Wftmnt-T5FOFc9-11" value="Platform API i" style="rounded=1;whiteSpace=wrap;html=1;align=left;verticalAlign=top;spacingLeft=5;" vertex="1" parent="lM1QA-Wftmnt-T5FOFc9-38">
          <mxGeometry x="1000" y="140" width="150" height="80" as="geometry" />
        </mxCell>
        <mxCell id="lM1QA-Wftmnt-T5FOFc9-12" value="Platform API ii" style="rounded=1;whiteSpace=wrap;html=1;align=left;verticalAlign=top;spacingLeft=5;" vertex="1" parent="lM1QA-Wftmnt-T5FOFc9-38">
          <mxGeometry x="1000" y="240" width="150" height="80" as="geometry" />
        </mxCell>
        <mxCell id="lM1QA-Wftmnt-T5FOFc9-13" value="" style="endArrow=classic;html=1;rounded=1;edgeStyle=elbowEdgeStyle;elbow=vertical;strokeWidth=1;exitX=0.25;exitY=0;exitDx=0;exitDy=0;strokeColor=light-dark(#BF4427,#EDEDED);" edge="1" parent="lM1QA-Wftmnt-T5FOFc9-38" source="lM1QA-Wftmnt-T5FOFc9-4" target="lM1QA-Wftmnt-T5FOFc9-3">
          <mxGeometry width="50" height="50" relative="1" as="geometry">
            <mxPoint x="320" y="230" as="sourcePoint" />
            <mxPoint x="130" y="230" as="targetPoint" />
            <Array as="points">
              <mxPoint x="220" y="220" />
            </Array>
          </mxGeometry>
        </mxCell>
        <mxCell id="lM1QA-Wftmnt-T5FOFc9-14" value="UI state" style="edgeLabel;html=1;align=center;verticalAlign=middle;resizable=0;points=[];labelBackgroundColor=none;" vertex="1" connectable="0" parent="lM1QA-Wftmnt-T5FOFc9-13">
          <mxGeometry relative="1" as="geometry">
            <mxPoint y="-8" as="offset" />
          </mxGeometry>
        </mxCell>
        <mxCell id="lM1QA-Wftmnt-T5FOFc9-15" value="Client-facing server" style="rounded=1;whiteSpace=wrap;html=1;align=left;verticalAlign=top;spacingLeft=5;" vertex="1" parent="lM1QA-Wftmnt-T5FOFc9-38">
          <mxGeometry x="1000" y="340" width="150" height="80" as="geometry" />
        </mxCell>
        <mxCell id="lM1QA-Wftmnt-T5FOFc9-16" value="" style="endArrow=classic;html=1;rounded=1;elbow=vertical;strokeWidth=1;edgeStyle=elbowEdgeStyle;entryX=0.25;entryY=1;entryDx=0;entryDy=0;strokeColor=light-dark(#e56715, #ededed);" edge="1" parent="lM1QA-Wftmnt-T5FOFc9-38" source="lM1QA-Wftmnt-T5FOFc9-3" target="lM1QA-Wftmnt-T5FOFc9-4">
          <mxGeometry width="50" height="50" relative="1" as="geometry">
            <mxPoint x="260" y="395" as="sourcePoint" />
            <mxPoint x="120" y="395" as="targetPoint" />
            <Array as="points">
              <mxPoint x="210" y="340" />
            </Array>
          </mxGeometry>
        </mxCell>
        <mxCell id="lM1QA-Wftmnt-T5FOFc9-17" value="User action triggers command" style="edgeLabel;html=1;align=center;verticalAlign=middle;resizable=0;points=[];labelBackgroundColor=none;" vertex="1" connectable="0" parent="lM1QA-Wftmnt-T5FOFc9-16">
          <mxGeometry relative="1" as="geometry">
            <mxPoint y="8" as="offset" />
          </mxGeometry>
        </mxCell>
        <mxCell id="lM1QA-Wftmnt-T5FOFc9-18" value="" style="endArrow=classic;html=1;rounded=1;edgeStyle=elbowEdgeStyle;elbow=vertical;strokeWidth=1;entryX=0.5;entryY=0;entryDx=0;entryDy=0;strokeColor=light-dark(#bf4427, #EDEDED);" edge="1" parent="lM1QA-Wftmnt-T5FOFc9-38" source="lM1QA-Wftmnt-T5FOFc9-2" target="lM1QA-Wftmnt-T5FOFc9-4">
          <mxGeometry width="50" height="50" relative="1" as="geometry">
            <mxPoint x="320" y="230" as="sourcePoint" />
            <mxPoint x="130" y="230" as="targetPoint" />
            <Array as="points">
              <mxPoint x="350" y="220" />
            </Array>
          </mxGeometry>
        </mxCell>
        <mxCell id="lM1QA-Wftmnt-T5FOFc9-19" value="domain models" style="edgeLabel;html=1;align=center;verticalAlign=middle;resizable=0;points=[];labelBackgroundColor=none;" vertex="1" connectable="0" parent="lM1QA-Wftmnt-T5FOFc9-18">
          <mxGeometry x="0.1" relative="1" as="geometry">
            <mxPoint y="-8" as="offset" />
          </mxGeometry>
        </mxCell>
        <mxCell id="lM1QA-Wftmnt-T5FOFc9-20" value="" style="endArrow=classic;html=1;rounded=1;edgeStyle=elbowEdgeStyle;elbow=vertical;strokeWidth=1;exitX=0.5;exitY=1;exitDx=0;exitDy=0;strokeColor=light-dark(#e56715, #ededed);" edge="1" parent="lM1QA-Wftmnt-T5FOFc9-38" source="lM1QA-Wftmnt-T5FOFc9-4" target="lM1QA-Wftmnt-T5FOFc9-2">
          <mxGeometry width="50" height="50" relative="1" as="geometry">
            <mxPoint x="345.12" y="384" as="sourcePoint" />
            <mxPoint x="200.12" y="414" as="targetPoint" />
            <Array as="points">
              <mxPoint x="320" y="340" />
            </Array>
          </mxGeometry>
        </mxCell>
        <mxCell id="lM1QA-Wftmnt-T5FOFc9-21" value="method calls" style="edgeLabel;html=1;align=center;verticalAlign=middle;resizable=0;points=[];labelBackgroundColor=none;" vertex="1" connectable="0" parent="lM1QA-Wftmnt-T5FOFc9-20">
          <mxGeometry relative="1" as="geometry">
            <mxPoint y="8" as="offset" />
          </mxGeometry>
        </mxCell>
        <mxCell id="lM1QA-Wftmnt-T5FOFc9-22" value="" style="endArrow=classic;startArrow=classic;html=1;rounded=1;edgeStyle=orthogonalEdgeStyle;curved=0;" edge="1" parent="lM1QA-Wftmnt-T5FOFc9-38" source="lM1QA-Wftmnt-T5FOFc9-6" target="lM1QA-Wftmnt-T5FOFc9-9">
          <mxGeometry width="50" height="50" relative="1" as="geometry">
            <mxPoint x="400" y="480" as="sourcePoint" />
            <mxPoint x="450" y="430" as="targetPoint" />
          </mxGeometry>
        </mxCell>
        <mxCell id="lM1QA-Wftmnt-T5FOFc9-23" value="" style="endArrow=classic;startArrow=classic;html=1;rounded=1;edgeStyle=orthogonalEdgeStyle;curved=0;" edge="1" parent="lM1QA-Wftmnt-T5FOFc9-38" source="lM1QA-Wftmnt-T5FOFc9-7" target="lM1QA-Wftmnt-T5FOFc9-10">
          <mxGeometry width="50" height="50" relative="1" as="geometry">
            <mxPoint x="630" y="290" as="sourcePoint" />
            <mxPoint x="670" y="290" as="targetPoint" />
          </mxGeometry>
        </mxCell>
        <mxCell id="lM1QA-Wftmnt-T5FOFc9-24" value="" style="endArrow=classic;startArrow=classic;html=1;rounded=1;edgeStyle=orthogonalEdgeStyle;curved=0;" edge="1" parent="lM1QA-Wftmnt-T5FOFc9-38" source="lM1QA-Wftmnt-T5FOFc9-7" target="lM1QA-Wftmnt-T5FOFc9-9">
          <mxGeometry width="50" height="50" relative="1" as="geometry">
            <mxPoint x="630" y="290" as="sourcePoint" />
            <mxPoint x="670" y="290" as="targetPoint" />
            <Array as="points">
              <mxPoint x="660" y="380" />
              <mxPoint x="660" y="280" />
            </Array>
          </mxGeometry>
        </mxCell>
        <mxCell id="lM1QA-Wftmnt-T5FOFc9-25" value="" style="endArrow=classic;html=1;rounded=1;edgeStyle=orthogonalEdgeStyle;elbow=vertical;strokeWidth=1;strokeColor=light-dark(#BF4427,#EDEDED);" edge="1" parent="lM1QA-Wftmnt-T5FOFc9-38" source="lM1QA-Wftmnt-T5FOFc9-8" target="lM1QA-Wftmnt-T5FOFc9-5">
          <mxGeometry width="50" height="50" relative="1" as="geometry">
            <mxPoint x="320" y="230" as="sourcePoint" />
            <mxPoint x="570" y="60" as="targetPoint" />
            <Array as="points">
              <mxPoint x="680" y="160" />
              <mxPoint x="680" y="160" />
            </Array>
          </mxGeometry>
        </mxCell>
        <mxCell id="lM1QA-Wftmnt-T5FOFc9-26" value="API models" style="edgeLabel;html=1;align=center;verticalAlign=middle;resizable=0;points=[];labelBackgroundColor=none;" vertex="1" connectable="0" parent="lM1QA-Wftmnt-T5FOFc9-25">
          <mxGeometry relative="1" as="geometry">
            <mxPoint y="-8" as="offset" />
          </mxGeometry>
        </mxCell>
        <mxCell id="lM1QA-Wftmnt-T5FOFc9-27" value="" style="endArrow=classic;html=1;rounded=1;edgeStyle=orthogonalEdgeStyle;elbow=vertical;strokeWidth=1;strokeColor=light-dark(#e56715, #ededed);" edge="1" parent="lM1QA-Wftmnt-T5FOFc9-38" source="lM1QA-Wftmnt-T5FOFc9-5" target="lM1QA-Wftmnt-T5FOFc9-8">
          <mxGeometry width="50" height="50" relative="1" as="geometry">
            <mxPoint x="320" y="230" as="sourcePoint" />
            <mxPoint x="570" y="60" as="targetPoint" />
            <Array as="points">
              <mxPoint x="690" y="200" />
              <mxPoint x="690" y="200" />
            </Array>
          </mxGeometry>
        </mxCell>
        <mxCell id="lM1QA-Wftmnt-T5FOFc9-28" value="poll data" style="edgeLabel;html=1;align=center;verticalAlign=middle;resizable=0;points=[];labelBackgroundColor=none;" vertex="1" connectable="0" parent="lM1QA-Wftmnt-T5FOFc9-27">
          <mxGeometry relative="1" as="geometry">
            <mxPoint y="8" as="offset" />
          </mxGeometry>
        </mxCell>
        <mxCell id="lM1QA-Wftmnt-T5FOFc9-29" value="" style="endArrow=classic;html=1;rounded=1;elbow=vertical;strokeWidth=1;startArrow=classic;startFill=1;strokeColor=light-dark(#438177, #ededed);" edge="1" parent="lM1QA-Wftmnt-T5FOFc9-38" source="lM1QA-Wftmnt-T5FOFc9-11" target="lM1QA-Wftmnt-T5FOFc9-8">
          <mxGeometry width="50" height="50" relative="1" as="geometry">
            <mxPoint x="978" y="70" as="sourcePoint" />
            <mxPoint x="840" y="70" as="targetPoint" />
          </mxGeometry>
        </mxCell>
        <mxCell id="lM1QA-Wftmnt-T5FOFc9-30" value="method channels&lt;div&gt;and native objects&lt;/div&gt;" style="edgeLabel;html=1;align=center;verticalAlign=middle;resizable=0;points=[];labelBackgroundColor=none;" vertex="1" connectable="0" parent="lM1QA-Wftmnt-T5FOFc9-29">
          <mxGeometry relative="1" as="geometry">
            <mxPoint y="16" as="offset" />
          </mxGeometry>
        </mxCell>
        <mxCell id="lM1QA-Wftmnt-T5FOFc9-31" value="" style="endArrow=classic;html=1;rounded=1;elbow=vertical;strokeWidth=1;startArrow=classic;startFill=1;strokeColor=light-dark(#438177, #ededed);" edge="1" parent="lM1QA-Wftmnt-T5FOFc9-38" source="lM1QA-Wftmnt-T5FOFc9-12" target="lM1QA-Wftmnt-T5FOFc9-9">
          <mxGeometry width="50" height="50" relative="1" as="geometry">
            <mxPoint x="978" y="70" as="sourcePoint" />
            <mxPoint x="840" y="70" as="targetPoint" />
          </mxGeometry>
        </mxCell>
        <mxCell id="lM1QA-Wftmnt-T5FOFc9-32" value="method channels&lt;div&gt;and native objects&lt;/div&gt;" style="edgeLabel;html=1;align=center;verticalAlign=middle;resizable=0;points=[];labelBackgroundColor=none;" vertex="1" connectable="0" parent="lM1QA-Wftmnt-T5FOFc9-31">
          <mxGeometry relative="1" as="geometry">
            <mxPoint y="16" as="offset" />
          </mxGeometry>
        </mxCell>
        <mxCell id="lM1QA-Wftmnt-T5FOFc9-33" value="" style="endArrow=classic;html=1;rounded=1;elbow=vertical;strokeWidth=1;startArrow=classic;startFill=1;strokeColor=light-dark(#438177, #ededed);" edge="1" parent="lM1QA-Wftmnt-T5FOFc9-38" source="lM1QA-Wftmnt-T5FOFc9-15" target="lM1QA-Wftmnt-T5FOFc9-10">
          <mxGeometry width="50" height="50" relative="1" as="geometry">
            <mxPoint x="978" y="70" as="sourcePoint" />
            <mxPoint x="840" y="70" as="targetPoint" />
          </mxGeometry>
        </mxCell>
        <mxCell id="lM1QA-Wftmnt-T5FOFc9-34" value="HTTP" style="edgeLabel;html=1;align=center;verticalAlign=middle;resizable=0;points=[];labelBackgroundColor=none;" vertex="1" connectable="0" parent="lM1QA-Wftmnt-T5FOFc9-33">
          <mxGeometry relative="1" as="geometry">
            <mxPoint y="8" as="offset" />
          </mxGeometry>
        </mxCell>
        <mxCell id="lM1QA-Wftmnt-T5FOFc9-39" value="Outlines" parent="0" />
        <mxCell id="lM1QA-Wftmnt-T5FOFc9-35" value="" style="rounded=1;whiteSpace=wrap;html=1;fillColor=none;dashed=1;dashPattern=12 12;verticalAlign=middle;labelPosition=center;verticalLabelPosition=middle;align=center;spacing=10;fontSize=14;arcSize=8;" vertex="1" parent="lM1QA-Wftmnt-T5FOFc9-39">
          <mxGeometry x="40" y="100" width="830" height="340" as="geometry" />
        </mxCell>
        <mxCell id="lM1QA-Wftmnt-T5FOFc9-37" value="Flutter Application" style="text;html=1;align=center;verticalAlign=middle;whiteSpace=wrap;rounded=0;fontSize=14;" vertex="1" parent="lM1QA-Wftmnt-T5FOFc9-39">
          <mxGeometry x="375" y="70" width="160" height="20" as="geometry" />
        </mxCell>
        <mxCell id="lM1QA-Wftmnt-T5FOFc9-36" value="External data" style="text;html=1;align=center;verticalAlign=middle;whiteSpace=wrap;rounded=0;fontSize=14;" vertex="1" parent="lM1QA-Wftmnt-T5FOFc9-39">
          <mxGeometry x="1025" y="70" width="100" height="20" as="geometry" />
        </mxCell>
        <mxCell id="lM1QA-Wftmnt-T5FOFc9-40" value="&lt;b&gt;&lt;font style=&quot;font-size: 16px;&quot;&gt;TODO implement specifically for Units&lt;/font&gt;&lt;/b&gt;" style="rounded=0;whiteSpace=wrap;html=1;fillColor=#fff2cc;strokeColor=#d6b656;" vertex="1" parent="lM1QA-Wftmnt-T5FOFc9-39">
          <mxGeometry x="495" y="510" width="180" height="60" as="geometry" />
        </mxCell>
      </root>
    </mxGraphModel>
  </diagram>
</mxfile>
